<svg xmlns="http://www.w3.org/2000/svg" width="1200" height="720" viewBox="0 0 1200 720" role="img" aria-label="Open Claw Character Drop">
  <defs>
    <linearGradient id="bg" x1="0" y1="0" x2="1" y2="1">
      <stop offset="0%" stop-color="#001a27"/>
      <stop offset="100%" stop-color="#0b3a56"/>
    </linearGradient>
    <filter id="shadow" x="-20%" y="-20%" width="140%" height="140%">
      <feDropShadow dx="0" dy="10" stdDeviation="16" flood-color="#000" flood-opacity="0.35"/>
    </filter>
  </defs>

  <rect width="1200" height="720" fill="url(#bg)"/>

  <rect x="60" y="60" width="1080" height="70" rx="35" fill="rgba(10,10,10,0.35)"/>
  <text x="95" y="105" fill="#a5f2ff" font-family="ui-monospace, SFMono-Regular, Menlo, Consolas, monospace" font-size="22">Campaign B</text>
  <text x="310" y="102" fill="#ffffff" font-family="'Segoe UI', Helvetica, Arial, sans-serif" font-size="36" font-weight="700">Open Claw Character Drop</text>
  <text x="312" y="125" fill="#a5f2ff" font-family="'Segoe UI', Helvetica, Arial, sans-serif" font-size="20">Lobster mascot sequence</text>

  <g filter="url(#shadow)">
    <rect x="70" y="160" width="1060" height="500" rx="18" fill="#0b0f14" stroke="#6de5ff" stroke-opacity="0.45"/>
    <rect x="70" y="160" width="1060" height="52" rx="18" fill="#171d26"/>
    <rect x="70" y="194" width="1060" height="18" fill="#171d26"/>
    <circle cx="105" cy="186" r="8" fill="#ff5f57"/>
    <circle cx="130" cy="186" r="8" fill="#ffbd2e"/>
    <circle cx="155" cy="186" r="8" fill="#28c840"/>
    <text x="190" y="193" fill="#b7c0cd" font-family="ui-monospace, SFMono-Regular, Menlo, Consolas, monospace" font-size="19">termad campaign preview</text>

    <rect x="94" y="234" width="1012" height="402" rx="10" fill="#05090f"/>

    <text font-family="ui-monospace, SFMono-Regular, Menlo, Consolas, monospace" font-size="24" fill="#6de5ff" xml:space="preserve">
      <tspan x="110" y="210">  .:-=+*#%@#+=-:.                             </tspan><tspan x="110" y="236"> .:+*##########*=:                            </tspan><tspan x="110" y="262"> :+###*++==++*###-   OPEN CLAW // MIDNIGHT    </tspan><tspan x="110" y="288"> =##*-  .--.  -*##:                           </tspan><tspan x="110" y="314"> +##:  (o  o)  :##=   LOBSTER OPS ONLINE      </tspan><tspan x="110" y="340"> +##:   \_/   :##=                            </tspan><tspan x="110" y="366"> =##*-  /||\  -*##:                           </tspan><tspan x="110" y="392"> :+###*+====+*###-                            </tspan><tspan x="110" y="418">  .:+*##########*=:                           </tspan><tspan x="110" y="444">    .:-=+*##*+=-:.                            </tspan><tspan x="110" y="470">                                              </tspan><tspan x="110" y="496">                                              </tspan><tspan x="110" y="522">                                              </tspan><tspan x="110" y="548">                                              </tspan>
    </text>
  </g>
</svg>
