<svg xmlns="http://www.w3.org/2000/svg" width="1200" height="720" viewBox="0 0 1200 720" role="img" aria-label="Midnight Fuel Campaign">
  <defs>
    <linearGradient id="bg" x1="0" y1="0" x2="1" y2="1">
      <stop offset="0%" stop-color="#3a0000"/>
      <stop offset="100%" stop-color="#8a1200"/>
    </linearGradient>
    <filter id="shadow" x="-20%" y="-20%" width="140%" height="140%">
      <feDropShadow dx="0" dy="10" stdDeviation="16" flood-color="#000" flood-opacity="0.35"/>
    </filter>
  </defs>

  <rect width="1200" height="720" fill="url(#bg)"/>

  <rect x="60" y="60" width="1080" height="70" rx="35" fill="rgba(10,10,10,0.35)"/>
  <text x="95" y="105" fill="#ffd86a" font-family="ui-monospace, SFMono-Regular, Menlo, Consolas, monospace" font-size="22">Campaign A</text>
  <text x="310" y="102" fill="#ffffff" font-family="'Segoe UI', Helvetica, Arial, sans-serif" font-size="36" font-weight="700">Midnight Fuel Campaign</text>
  <text x="312" y="125" fill="#ffd86a" font-family="'Segoe UI', Helvetica, Arial, sans-serif" font-size="20">McDonald's x termad</text>

  <g filter="url(#shadow)">
    <rect x="70" y="160" width="1060" height="500" rx="18" fill="#0b0f14" stroke="#ffcc00" stroke-opacity="0.45"/>
    <rect x="70" y="160" width="1060" height="52" rx="18" fill="#171d26"/>
    <rect x="70" y="194" width="1060" height="18" fill="#171d26"/>
    <circle cx="105" cy="186" r="8" fill="#ff5f57"/>
    <circle cx="130" cy="186" r="8" fill="#ffbd2e"/>
    <circle cx="155" cy="186" r="8" fill="#28c840"/>
    <text x="190" y="193" fill="#b7c0cd" font-family="ui-monospace, SFMono-Regular, Menlo, Consolas, monospace" font-size="19">termad campaign preview</text>

    <rect x="94" y="234" width="1012" height="402" rx="10" fill="#05090f"/>

    <text font-family="ui-monospace, SFMono-Regular, Menlo, Consolas, monospace" font-size="24" fill="#ffcc00" xml:space="preserve">
      <tspan x="110" y="210">          .-~~~~~~~~~-.       </tspan><tspan x="110" y="236">        .'   _________   '.      </tspan><tspan x="110" y="262">       /    /  BEEF  \    \     </tspan><tspan x="110" y="288">      |    | LETTUCE |    |       </tspan><tspan x="110" y="314">      |    | CHEESE  |    |       </tspan><tspan x="110" y="340">       \    \_______/    /      </tspan><tspan x="110" y="366">        '._           _.'        </tspan><tspan x="110" y="392">           '---------'           </tspan><tspan x="110" y="418">   Burger break, then ship it.    </tspan>
    </text>
  </g>
</svg>
